<svg aria-hidden="true" style="position: absolute; width: 0; height: 0; overflow: hidden;" version="1.1" xmlns="http://www.w3.org/2000/svg" xmlns:xlink="http://www.w3.org/1999/xlink">
<defs>
<symbol id="icon-icon-music" viewBox="0 0 32 32">
<path fill="#dfe6fb" style="fill: var(--color1, #dfe6fb)" d="M32 16c0 8.837-7.163 16-16 16s-16-7.163-16-16c0-8.837 7.163-16 16-16s16 7.163 16 16z"></path>
<path fill="#717fa6" style="fill: var(--color2, #717fa6)" d="M21.716 10.132c-0.094-0.082-0.218-0.132-0.354-0.132-0.027 0-0.054 0.002-0.080 0.006l0.003-0-7.565 1.081c-0.264 0.039-0.464 0.263-0.464 0.535 0 0 0 0.001 0 0.001v-0 6.334c-0.311-0.184-0.685-0.293-1.085-0.293-0.001 0-0.002 0-0.003 0h0c-1.197 0.002-2.167 0.972-2.169 2.169v0c0.002 1.197 0.972 2.167 2.169 2.169h0c1.197-0.002 2.167-0.972 2.169-2.169v-5.58l6.484-0.927v3.551c-0.311-0.185-0.686-0.294-1.087-0.294-0 0-0.001 0-0.001 0h0c-1.197 0.001-2.168 0.971-2.169 2.169v0c0.002 1.197 0.972 2.168 2.169 2.169h0c1.197-0.002 2.167-0.972 2.169-2.169v-8.211c0-0 0-0 0-0 0-0.163-0.072-0.309-0.186-0.408l-0.001-0.001z"></path>
</symbol>
<symbol id="icon-illustration-hero" viewBox="0 0 65 32">
<path fill="#382ae1" style="fill: var(--color3, #382ae1)" d="M0 0h65.455v32h-65.455z"></path>
<path fill="#1e1fcd" style="fill: var(--color4, #1e1fcd)" d="M31.827 6.691v1.944h0.245v0.527h0.917v11.343l1.856 0.974v-1.875h0.443v2.116l0.434 0.224v16.423l-31.082 0.354v-10.507h1.020v-10.103h0.371v-1.389h0.443v1.389l2.058 0.002v0.029c-0.001 0.301-0.013 2.769-0.014 4.585v0.439c0 0.872 0.004 1.508 0.014 1.519s0.114 0.015 0.254 0.016h0.073c0.313-0.001 0.738-0.016 0.738-0.016v5.3h0.842v-18.874h1.073v-1.041h0.443v1.041h3.362v0.93h1.279v-1.971h0.443v1.971h0.628v3.458h1.506v6.201h1.772v5.628h0.929v-11.697h1.169v-1.791h0.443v1.791h3.217v-6.465h0.939v-0.531h3.745v-1.944h0.443zM2.304 21.453v0.604h0.465l0.936 16.62h-4.869l0.937-16.619h0.366v-0.604h2.164z"></path>
<path fill="#1e1fcd" style="fill: var(--color4, #1e1fcd)" d="M61.5 11.927v1.944h0.245v0.527h0.917v11.343l1.856 0.974v-1.875h0.443v2.116l0.434 0.224v16.423l-31.082 0.354v-10.507h1.020v-10.103h0.371v-1.389h0.443v1.389l2.058 0.002v0.029c-0.001 0.301-0.013 2.769-0.014 4.585v0.439c0 0.872 0.004 1.508 0.014 1.519s0.114 0.015 0.254 0.016h0.073c0.313-0.001 0.738-0.016 0.738-0.016v5.3h0.842v-18.874h1.073v-1.041h0.443v1.041h3.362v0.93h1.279v-1.971h0.443v1.971h0.627v3.458h1.506v6.201h1.772v5.628h0.929v-11.697h1.169v-1.791h0.443v1.791h3.217v-6.465h0.939v-0.531h3.745v-1.944h0.443zM31.977 26.689v0.604h0.465l0.936 16.619h-4.869l0.937-16.619h0.366v-0.604h2.164z"></path>
<path fill="#fff" style="fill: var(--color5, #fff)" d="M32.69 4.057c-0.021-0.308-1.4 0.588-1.4 0.588s1.168-0.896 1.068-1.12c-0.1-0.224-1.416 0.756-1.416 0.756s1.201-0.924 1.016-1.121c-0.185-0.197-1.468 0.841-1.468 0.841s1.308-1.149 0.809-1.177c-0.224-0.012-1.984 1.184-3.892 2.619 0.534 0.666 1.068 1.31 1.644 1.933 0.611-0.632 1.093-1.134 1.158-1.218 0.196-0.252 2.145-0.084 2.153-0.392s-1.284-0.448-1.284-0.448 1.633-0.953 1.612-1.261z"></path>
<path fill="#231f20" style="fill: var(--color6, #231f20)" d="M29.042 7.436c-0 0-0.001 0-0.001 0-0.017 0-0.032-0.007-0.043-0.019l-0-0c-0.513-0.554-1.036-1.169-1.648-1.937-0.008-0.010-0.014-0.024-0.014-0.038 0-0.002 0-0.005 0-0.007l-0 0c0.003-0.017 0.012-0.031 0.024-0.041l0-0c1.411-1.066 3.613-2.63 3.928-2.63 0.071-0.007 0.137 0.034 0.163 0.1 0.043 0.12-0.107 0.341-0.303 0.564 0.366-0.244 0.731-0.432 0.846-0.309 0.027 0.029 0.040 0.068 0.035 0.108-0.009 0.109-0.133 0.267-0.299 0.441 0.251-0.148 0.486-0.26 0.594-0.232 0.036 0.007 0.065 0.030 0.080 0.062l0 0.001c0.065 0.14-0.185 0.425-0.478 0.693 0.314-0.168 0.631-0.304 0.753-0.243 0.039 0.019 0.066 0.058 0.068 0.104v0c0.020 0.288-1.041 0.954-1.496 1.226 0.416 0.057 1.165 0.2 1.158 0.488 0 0.209-0.442 0.244-1.156 0.281-0.416 0.023-0.934 0.051-1.009 0.147s-0.44 0.477-1.162 1.224c-0.011 0.010-0.025 0.016-0.040 0.017h-0zM27.485 5.454c0.575 0.72 1.068 1.305 1.559 1.833 0.846-0.874 1.068-1.117 1.109-1.166 0.101-0.133 0.483-0.16 1.098-0.193 0.363-0.020 1.038-0.056 1.041-0.163 0-0.156-0.635-0.321-1.229-0.386-0.026-0.003-0.047-0.022-0.052-0.048l-0-0c-0.001-0.004-0.001-0.008-0.001-0.013 0-0.022 0.012-0.041 0.029-0.052l0-0c0.791-0.458 1.601-1.034 1.591-1.2-0.083-0.057-0.681 0.235-1.306 0.641-0.008 0.004-0.018 0.007-0.028 0.007-0.034 0-0.061-0.027-0.061-0.061 0-0.018 0.008-0.034 0.020-0.045l0-0c0.602-0.461 1.090-0.95 1.045-1.046-0.089-0.044-0.698 0.312-1.323 0.78-0.010 0.007-0.022 0.011-0.035 0.011-0.034 0-0.061-0.027-0.061-0.061 0-0.019 0.008-0.035 0.021-0.047l0-0c0.383-0.296 0.996-0.833 1.012-1.016v-0.015c-0.075-0.083-0.738 0.321-1.389 0.846-0.010 0.008-0.023 0.013-0.038 0.013-0.019 0-0.036-0.008-0.048-0.022l-0-0c-0.011-0.011-0.018-0.026-0.018-0.042s0.007-0.031 0.018-0.042v0c0.466-0.411 0.942-0.933 0.899-1.052 0-0.012-0.031-0.017-0.055-0.019-0.183-0.009-1.679 0.968-3.798 2.559z"></path>
<path fill="#231f20" style="fill: var(--color6, #231f20)" d="M22.263 10.018c-0.392 1.238 1.978 6.958 1.978 6.958l2.936-3.624c-0.065-0.112-1.55-2.69-1.55-2.69s2.19-2.025 3.411-3.286c-0.574-0.623-1.116-1.272-1.644-1.933-2.343 1.765-4.915 3.892-5.131 4.575z"></path>
<path fill="#231f20" style="fill: var(--color6, #231f20)" d="M24.241 17.035h-0.015c-0.021-0.003-0.038-0.017-0.045-0.036l-0-0c-0.097-0.233-2.374-5.752-1.979-6.997 0.223-0.703 2.803-2.839 5.155-4.604 0.010-0.008 0.022-0.012 0.036-0.012 0.018 0 0.035 0.008 0.045 0.021l0 0c0.61 0.765 1.132 1.378 1.643 1.93 0.020 0.023 0.020 0.057 0 0.080-1.125 1.162-3.096 2.994-3.381 3.256 20.925 38.653 21.432 39.521 21.94 40.389l-20.412-37.739c0.013 0.020 0.013 0.047 0 0.067l-2.936 3.623c-0.011 0.013-0.027 0.022-0.046 0.022-0.002 0-0.005-0-0.007-0l0 0zM27.388 5.525c-2.215 1.669-4.855 3.839-5.071 4.511-0.355 1.12 1.638 6.088 1.938 6.826l2.853-3.515-1.528-2.655c-0.005-0.008-0.007-0.018-0.007-0.029 0-0.018 0.007-0.033 0.019-0.045l0-0c0.021-0.020 2.157-1.999 3.371-3.243-0.491-0.533-0.993-1.122-1.575-1.85z"></path>
<path fill="#fff" style="fill: var(--color5, #fff)" d="M29.243 15.931c0.24 1.661 1.346 3.066 2.548 4.349 0.719 0.762 1.601 1.538 2.655 1.489 0.503-0.025 0.975-0.241 1.415-0.487 1.129-0.634 2.090-1.42 2.894-2.345l0.011-0.013c-0.001 0-0.002 0-0.003 0-0.335 0-0.611-0.253-0.647-0.578l-0-0.003c0.16 0.076 0.347 0.121 0.545 0.121 0.299 0 0.574-0.102 0.792-0.273l-0.003 0.002c0.817-0.648 0.42-1.22-0.204-1.702-0.966-0.748-1.733-1.706-2.243-2.807l-0.019-0.047c-0.779-1.741-2.328-4.067-4.62-3.536-2.205 0.509-2.803 2.485-3.107 4.444-0.037 0.221-0.059 0.476-0.059 0.736 0 0.229 0.017 0.454 0.049 0.674l-0.003-0.025z"></path>
<path fill="#231f20" style="fill: var(--color6, #231f20)" d="M34.346 21.832c-1.034 0-1.894-0.76-2.6-1.51-1.128-1.2-2.314-2.657-2.564-4.381-0.031-0.203-0.049-0.436-0.049-0.674 0-0.26 0.021-0.515 0.061-0.763l-0.004 0.027c0.134-0.84 0.346-1.915 0.849-2.787 0.481-0.866 1.304-1.493 2.281-1.704l0.023-0.004c1.046-0.241 3.045-0.099 4.691 3.571 0.523 1.139 1.285 2.090 2.226 2.819l0.017 0.013c0.467 0.361 0.686 0.679 0.689 1.001 0 0.267-0.161 0.541-0.484 0.8-0.226 0.176-0.514 0.283-0.826 0.283-0.166 0-0.324-0.030-0.471-0.084l0.009 0.003c0.078 0.244 0.302 0.418 0.567 0.42h0c0.001-0 0.002-0 0.003-0 0.024 0 0.045 0.014 0.054 0.034l0 0c0.004 0.008 0.006 0.016 0.006 0.026 0 0.015-0.006 0.029-0.015 0.040l0-0c-0.818 0.949-1.784 1.742-2.868 2.352l-0.053 0.028c-0.412 0.229-0.908 0.468-1.441 0.493h-0.101zM32.994 10.084c-0.209 0-0.418 0.024-0.622 0.071-2.166 0.501-2.751 2.407-3.060 4.399-0.036 0.216-0.056 0.464-0.056 0.717 0 0.231 0.017 0.459 0.050 0.681l-0.003-0.025c0.244 1.693 1.417 3.133 2.536 4.316 0.71 0.754 1.574 1.52 2.607 1.466 0.508-0.024 0.987-0.256 1.388-0.479 1.087-0.611 2.013-1.363 2.793-2.248l0.010-0.012c-0.311-0.058-0.549-0.311-0.584-0.625l-0-0.003c-0-0.002-0-0.003-0-0.005 0-0.021 0.011-0.039 0.027-0.049l0-0c0.009-0.005 0.019-0.008 0.030-0.008s0.022 0.003 0.030 0.009l-0-0c0.152 0.072 0.329 0.114 0.517 0.114 0.283 0 0.545-0.096 0.752-0.258l-0.003 0.002c0.292-0.233 0.44-0.469 0.438-0.703 0-0.277-0.211-0.573-0.641-0.905-0.974-0.754-1.748-1.719-2.26-2.83l-0.019-0.047c-1.32-2.954-2.86-3.579-3.928-3.579z"></path>
<path fill="#fff" style="fill: var(--color5, #fff)" d="M44.487 21.145c-0.093 0.369-1.627 3.104-1.627 3.104l2.002 1.081s1.811-3.031 1.966-3.232c0.155-0.201 1.468-1.949 1.647-2.562s-1.084-1.066-1.601-1.017c-0.518 0.049-2.293 2.257-2.386 2.626z"></path>
<path fill="#231f20" style="fill: var(--color6, #231f20)" d="M44.86 25.392c-0 0-0 0-0 0-0.010 0-0.020-0.003-0.028-0.008l0 0-2.002-1.081c-0.014-0.008-0.025-0.021-0.029-0.037l-0-0c-0.003-0.007-0.005-0.015-0.005-0.023s0.002-0.016 0.005-0.024l-0 0c0.534-0.943 1.547-2.799 1.62-3.089 0.099-0.392 1.894-2.625 2.435-2.666 0.394-0.033 1.215 0.205 1.544 0.604 0.087 0.093 0.14 0.219 0.14 0.357 0 0.048-0.006 0.094-0.018 0.138l0.001-0.004c-0.191 0.666-1.643 2.565-1.656 2.583-0.152 0.196-1.945 3.199-1.963 3.226-0.010 0.014-0.026 0.023-0.044 0.024h-0zM42.945 24.224l1.894 1.025c0.244-0.409 1.793-2.999 1.939-3.188 0.306-0.4 1.476-1.984 1.636-2.542 0.008-0.030 0.013-0.065 0.013-0.101 0-0.108-0.043-0.207-0.113-0.279l0 0c-0.3-0.364-1.081-0.591-1.439-0.56-0.488 0.043-2.247 2.266-2.329 2.581-0.088 0.348-1.38 2.669-1.601 3.065z"></path>
<path fill="#231f20" style="fill: var(--color6, #231f20)" d="M43.912 22.327l-1.788 2.178-3.857-2.582-1.643 3.055s5.462 4.096 6.236 3.704c0.774-0.392 3.119-5.225 3.119-5.225l-2.067-1.13z"></path>
<path fill="#231f20" style="fill: var(--color6, #231f20)" d="M42.737 28.765c-1.126 0-5.615-3.34-6.148-3.74-0.014-0.011-0.023-0.028-0.023-0.047 0-0.010 0.002-0.020 0.007-0.028l-0 0 1.643-3.055c0.010-0.019 0.029-0.031 0.052-0.031 0.012 0 0.023 0.004 0.032 0.010l-0-0 3.81 2.553 1.755-2.133c0.011-0.013 0.027-0.022 0.045-0.022 0.010 0 0.020 0.003 0.028 0.008l-0-0 2.074 1.13c0.018 0.011 0.030 0.030 0.030 0.052 0 0.009-0.002 0.018-0.006 0.026l0-0c-0.096 0.199-2.366 4.856-3.151 5.252-0.047 0.020-0.097 0.030-0.148 0.027zM36.699 24.961c1.543 1.153 5.532 3.975 6.139 3.67 0.706-0.359 2.82-4.633 3.070-5.148l-1.98-1.081-1.758 2.141c-0.010 0.014-0.027 0.022-0.045 0.022-0.012 0-0.023-0.004-0.033-0.010l0 0-3.805-2.547-1.588 2.954zM45.55 17l-0.017 5.327h2.524v-5.327z"></path>
<path fill="#231f20" style="fill: var(--color6, #231f20)" d="M48.056 22.391h-2.524c0 0 0 0 0 0-0.032 0-0.059-0.026-0.059-0.059 0-0 0-0.001 0-0.001v0l0.016-5.332c0.001-0.033 0.027-0.059 0.060-0.059 0 0 0 0 0 0h2.506c0.033 0 0.059 0.026 0.059 0.059v5.332c0 0 0 0.001 0 0.001 0 0.032-0.026 0.059-0.059 0.059 0 0 0 0 0 0v0zM45.592 22.274h2.402v-5.215h-2.389l-0.013 5.215z"></path>
<path fill="#fff" style="fill: var(--color5, #fff)" d="M45.806 17.471l-0.013 4.186h2.005v-4.186z"></path>
<path fill="#231f20" style="fill: var(--color6, #231f20)" d="M47.797 21.716h-2.002c-0 0-0.001 0-0.001 0-0.016 0-0.031-0.007-0.042-0.017v0c-0.011-0.011-0.017-0.025-0.017-0.042 0-0.001 0-0.002 0-0.002v0l0.012-4.184c0.001-0.033 0.028-0.060 0.061-0.060 0 0 0 0 0 0h1.991c0.033 0 0.060 0.027 0.060 0.060v4.186c-0 0.033-0.027 0.060-0.060 0.060-0.001 0-0.002-0-0.003-0h0zM45.854 21.591h1.882v-4.059h-1.868l-0.013 4.059z"></path>
<path fill="#fff" style="fill: var(--color5, #fff)" d="M44.378 21.422s-0.376-1.794 0.188-2.076c0.564-0.281 2.505-0.61 2.205-0.171s-1.352 0.712-1.352 0.712 0.216 0.628-0.021 1.073z"></path>
<path fill="#231f20" style="fill: var(--color6, #231f20)" d="M44.378 21.482c-0 0-0.001 0-0.001 0-0.029 0-0.053-0.020-0.058-0.048l-0-0c-0.016-0.075-0.38-1.843 0.22-2.142 0.487-0.241 2.059-0.552 2.289-0.29 0.022 0.027 0.036 0.062 0.036 0.1 0 0.042-0.017 0.081-0.044 0.109l0-0c-0.267 0.4-1.090 0.653-1.325 0.72 0.049 0.175 0.161 0.674-0.044 1.066-0.011 0.019-0.031 0.031-0.054 0.031-0.011 0-0.021-0.003-0.030-0.008l0 0c-0.019-0.011-0.032-0.031-0.032-0.055 0-0.010 0.002-0.020 0.007-0.028l-0 0c0.223-0.416 0.020-1.017 0.017-1.024s-0.005-0.015-0.005-0.024 0.002-0.017 0.005-0.024l-0 0c0.008-0.015 0.022-0.026 0.038-0.030l0-0c0.011 0 1.033-0.267 1.317-0.687 0.020-0.029 0.025-0.051 0.016-0.061-0.144-0.165-1.601 0.053-2.143 0.32-0.428 0.213-0.256 1.521-0.155 2.007 0.001 0.004 0.002 0.009 0.002 0.013 0 0.029-0.020 0.053-0.048 0.059l-0 0-0.009-0.005z"></path>
<path fill="#75ecca" style="fill: var(--color7, #75ecca)" d="M30.425 17.937l-3.324-5.7-3.737 4.144 1.388 2.989s-2.135 5.048-2.135 14.943c0 0 11.368-0.049 14.229-0.049l-3.737-5.805s0.934-2.69 1.416-3.362l2.783 1.513 3.254-4.427-10.136-4.246z"></path>
<path fill="#231f20" style="fill: var(--color6, #231f20)" d="M30.377 23.371c1.835 1.066 2.269-3.268 2.35-4.207 0.037-0.258 0.022-0.521-0.045-0.773-0.105-0.32-0.352-0.568-0.599-0.8-0.295-0.267-0.635-0.546-1.037-0.564-0.393 0.006-0.74 0.2-0.954 0.496l-0.002 0.003c-0.207 0.289-0.365 0.629-0.455 0.996l-0.004 0.020c-0.432 1.508-0.416 3.099 0.418 4.47 0.072 0.133 0.169 0.243 0.287 0.327l0.003 0.002 0.040 0.029z"></path>
<path fill="#231f20" style="fill: var(--color6, #231f20)" d="M30.926 23.597c-0.215-0.007-0.414-0.071-0.583-0.179l0.005 0.003-0.041-0.025c-0.128-0.091-0.232-0.208-0.306-0.344l-0.003-0.005c-0.764-1.257-0.911-2.818-0.424-4.516 0.096-0.394 0.257-0.741 0.475-1.045l-0.006 0.009c0.228-0.315 0.593-0.519 1.006-0.523h0.001c0.411 0.017 0.759 0.289 1.068 0.58 0.251 0.231 0.504 0.485 0.615 0.82 0.069 0.261 0.085 0.533 0.048 0.8-0.124 1.398-0.48 3.82-1.468 4.331-0.112 0.060-0.244 0.095-0.385 0.095-0 0-0 0-0 0v0zM31.008 17.090c-0.36 0.019-0.675 0.201-0.872 0.474l-0.002 0.003c-0.202 0.284-0.356 0.617-0.443 0.976l-0.004 0.020c-0.479 1.666-0.336 3.199 0.411 4.423 0.066 0.125 0.156 0.229 0.264 0.309l0.002 0.002 0.039 0.023c0.318 0.185 0.598 0.211 0.855 0.077 0.686-0.355 1.201-1.898 1.407-4.238 0.012-0.081 0.019-0.174 0.019-0.269 0-0.171-0.023-0.337-0.065-0.495l0.003 0.013c-0.101-0.308-0.343-0.549-0.583-0.77-0.299-0.275-0.626-0.533-0.999-0.548h-0.032zM35.853 15.242c0.169 0.614-0.108 1.397-0.525 1.852-0.278 0.3-0.886 0.38-1.009-0.108-0.043-0.172-0.067-0.37-0.067-0.574 0-0.491 0.143-0.948 0.39-1.333l-0.006 0.010c0.267-0.439 0.778-0.689 1.106-0.125 0.049 0.088 0.086 0.181 0.111 0.279z"></path>
<path fill="#231f20" style="fill: var(--color6, #231f20)" d="M34.776 17.394c-0.001 0-0.002 0-0.003 0-0.053 0-0.104-0.006-0.153-0.018l0.004 0.001c-0.182-0.047-0.322-0.192-0.361-0.374l-0.001-0.003c-0.044-0.177-0.070-0.381-0.070-0.591 0-0.5 0.144-0.966 0.393-1.359l-0.006 0.010c0.187-0.3 0.451-0.481 0.698-0.48 0.14 0 0.342 0.065 0.51 0.356 0.053 0.092 0.094 0.19 0.123 0.292 0.184 0.666-0.134 1.466-0.534 1.906-0.151 0.159-0.364 0.259-0.6 0.26h-0zM35.271 14.697c-0.203 0-0.428 0.161-0.591 0.423-0.232 0.365-0.37 0.809-0.37 1.286 0 0.201 0.024 0.396 0.071 0.582l-0.003-0.017c0.028 0.142 0.135 0.256 0.276 0.29 0.038 0.007 0.081 0.011 0.125 0.011 0.199 0 0.379-0.084 0.506-0.219l0-0c0.376-0.408 0.683-1.177 0.512-1.795-0.028-0.101-0.066-0.19-0.114-0.272l0.003 0.005c-0.113-0.195-0.251-0.295-0.41-0.296l-0.005 0.001z"></path>
<path fill="#fff" style="fill: var(--color5, #fff)" d="M32.99 17.992c-0.267 1.023-0.534 3.351-2.236 2.133-0.174-0.138-0.323-0.297-0.446-0.475l-0.005-0.007c-0.838-1.116-0.599-1.82-0.166-3.044 0.187-0.533 0.348-1.066 0.534-1.6s0.491-1.034 0.745-1.54c-0.009 0.017 0.834 0.133 1.678-0.249s1.541-0.78 1.541-0.78c0.228 0.341 0.475 0.6 0.597 1.005 0.112 0.393 0.144 0.804 0.095 1.21-0.107 0.996-0.506 2.073-0.958 2.962s-1.378 0.385-1.378 0.385z"></path>
<path fill="#231f20" style="fill: var(--color6, #231f20)" d="M31.614 20.534c-0.267 0-0.564-0.12-0.896-0.357-0.179-0.142-0.333-0.305-0.46-0.488l-0.005-0.007c-0.863-1.15-0.603-1.885-0.173-3.1 0.089-0.256 0.175-0.519 0.257-0.772 0.089-0.273 0.182-0.554 0.28-0.83 0.172-0.443 0.349-0.813 0.55-1.167l-0.023 0.044c0.075-0.141 0.15-0.283 0.22-0.424 0.010-0.020 0.030-0.033 0.054-0.033 0.010 0 0.020 0.002 0.028 0.007l-0-0c0.108 0.013 0.232 0.021 0.358 0.021 0.458 0 0.892-0.1 1.282-0.279l-0.019 0.008c0.653-0.299 1.157-0.559 1.649-0.837l-0.113 0.059c0.009-0.005 0.019-0.007 0.030-0.007 0.021 0 0.040 0.011 0.052 0.027l0 0c0.057 0.085 0.115 0.165 0.172 0.244 0.182 0.22 0.328 0.478 0.427 0.758l0.005 0.018c0.114 0.401 0.147 0.821 0.097 1.236-0.097 0.892-0.439 1.951-0.965 2.982-0.113 0.247-0.318 0.435-0.571 0.522l-0.007 0.002c-0.092 0.024-0.197 0.038-0.305 0.038-0.186 0-0.363-0.041-0.521-0.115l0.008 0.003c-0.009 0.018-0.037 0.135-0.064 0.253l-0.018 0.095c-0.176 0.764-0.416 1.812-1.053 2.052-0.082 0.032-0.178 0.051-0.277 0.052h-0zM31.454 13.527c-0.064 0.133-0.134 0.256-0.2 0.384-0.176 0.307-0.351 0.672-0.5 1.050l-0.021 0.059c-0.097 0.267-0.189 0.555-0.279 0.826s-0.168 0.517-0.259 0.774c-0.431 1.218-0.667 1.889 0.157 2.987 0.124 0.181 0.269 0.336 0.433 0.467l0.004 0.003c0.419 0.301 0.777 0.4 1.068 0.291 0.575-0.217 0.801-1.226 0.977-1.963 0.036-0.155 0.068-0.3 0.102-0.424 0.008-0.026 0.032-0.045 0.060-0.045 0.010 0 0.020 0.002 0.028 0.007l-0-0c0.155 0.081 0.338 0.129 0.532 0.129 0.095 0 0.188-0.011 0.276-0.033l-0.008 0.002c0.227-0.079 0.406-0.244 0.501-0.456l0.002-0.005c0.519-1.018 0.858-2.063 0.953-2.941 0.014-0.109 0.022-0.234 0.022-0.362 0-0.294-0.042-0.577-0.121-0.846l0.005 0.021c-0.102-0.284-0.244-0.53-0.422-0.744l0.003 0.004c-0.048-0.065-0.097-0.133-0.144-0.201-0.36 0.206-0.851 0.458-1.351 0.693l-0.146 0.062c-0.386 0.178-0.838 0.281-1.314 0.281-0.127 0-0.252-0.007-0.375-0.022l0.015 0.001z"></path>
<path fill="#231f20" style="fill: var(--color6, #231f20)" d="M32.71 18.981s-0.826-0.188-1.201-0.874c-0.375-0.687-0.148-1.213-0.148-1.213s0.721 0.833 1.632 1.102l-0.283 0.985z"></path>
<path fill="#231f20" style="fill: var(--color6, #231f20)" d="M32.71 19.040h-0.013c-0.035-0.008-0.857-0.201-1.241-0.903s-0.161-1.242-0.152-1.265c0.008-0.018 0.025-0.032 0.045-0.035l0-0c0.003-0 0.006-0.001 0.009-0.001 0.018 0 0.034 0.007 0.045 0.019l0 0c0 0.008 0.722 0.824 1.601 1.085 0.025 0.007 0.043 0.030 0.043 0.056 0 0.006-0.001 0.012-0.003 0.017l0-0-0.276 0.982c-0.007 0.025-0.030 0.043-0.056 0.043-0 0-0.001 0-0.001 0h0zM31.383 17.010c-0.021 0.093-0.032 0.2-0.032 0.309 0 0.279 0.077 0.541 0.211 0.764l-0.004-0.007c0.305 0.557 0.925 0.776 1.11 0.83l0.25-0.873c-0.738-0.236-1.336-0.814-1.535-1.024zM33.216 16.313c-0.177-0.014-0.34-0.068-0.481-0.152l0.005 0.003c-0.018-0.010-0.030-0.029-0.030-0.051 0-0.033 0.026-0.059 0.059-0.059 0.011 0 0.021 0.003 0.030 0.008l-0-0c0.103 0.059 0.4 0.192 0.534 0.105 0.087-0.056-0.008-0.604-0.208-1.2-0.002-0.006-0.004-0.013-0.004-0.020 0-0.033 0.026-0.059 0.059-0.059 0.026 0 0.049 0.017 0.056 0.041l0 0c0.12 0.356 0.375 1.2 0.159 1.333-0.054 0.033-0.116 0.051-0.179 0.051z"></path>
<path fill="#231f20" style="fill: var(--color6, #231f20)" d="M32.972 17.035c-0.004 0-0.009 0-0.014 0-0.141 0-0.274-0.032-0.392-0.090l0.005 0.002c-0.334-0.165-0.534-0.553-0.603-1.153-0-0.002-0-0.004-0-0.006 0-0.030 0.023-0.056 0.052-0.060l0-0c0.002-0 0.005-0 0.007-0 0.030 0 0.055 0.023 0.058 0.052l0 0c0.063 0.557 0.243 0.914 0.534 1.066 0.444 0.22 1.012-0.113 1.017-0.116 0.009-0.006 0.019-0.009 0.031-0.009 0.021 0 0.040 0.011 0.050 0.029l0 0c0.005 0.009 0.008 0.019 0.008 0.030 0 0.021-0.011 0.040-0.028 0.051l-0 0c-0.209 0.119-0.458 0.193-0.723 0.203l-0.003 0zM33.034 14.375c-0.031 0-0.056-0.024-0.059-0.055v-0c-0.009-0.133-0.048-0.215-0.118-0.249-0.133-0.069-0.383 0.056-0.466 0.111-0.009 0.006-0.020 0.009-0.032 0.009-0.033 0-0.059-0.027-0.059-0.059 0-0.020 0.010-0.038 0.025-0.048l0-0c0.015-0.009 0.356-0.231 0.583-0.117 0.111 0.068 0.183 0.188 0.183 0.325 0 0.008-0 0.015-0.001 0.023l0-0.001c0 0.001 0 0.003 0 0.004 0 0.031-0.024 0.056-0.055 0.059h-0.004zM34.514 15.036c-0 0-0 0-0 0-0.031 0-0.056-0.023-0.058-0.053l-0-0s-0.027-0.293-0.193-0.4c-0.144-0.095-0.312 0.121-0.314 0.124-0.011 0.014-0.028 0.023-0.047 0.023-0.014 0-0.026-0.005-0.036-0.012l0 0c-0.015-0.011-0.024-0.028-0.024-0.047 0-0.013 0.004-0.026 0.012-0.036l-0 0c0.081-0.107 0.284-0.275 0.474-0.151 0.215 0.141 0.244 0.477 0.246 0.491 0 0.002 0 0.004 0 0.006 0 0.031-0.023 0.056-0.053 0.058l-0 0-0.005-0.003zM29.82 14.713c-0.004 0.035-0.006 0.075-0.006 0.116 0 0.183 0.042 0.356 0.116 0.511l-0.003-0.007c0.189 0.351 0.657 0.493 1.038 0.38 0.997-0.295 1.476-2.189 0.722-2.933-0.701-0.69-1.496 0.4-1.66 1.044-0.076 0.303-0.196 0.583-0.207 0.889z"></path>
<path fill="#231f20" style="fill: var(--color6, #231f20)" d="M30.699 15.81c-0.007 0-0.016 0-0.025 0-0.337 0-0.632-0.178-0.796-0.446l-0.002-0.004c-0.076-0.154-0.12-0.335-0.12-0.526 0-0.044 0.002-0.087 0.007-0.13l-0 0.005c0.018-0.223 0.063-0.443 0.133-0.656 0.024-0.081 0.048-0.163 0.069-0.244 0.116-0.448 0.547-1.142 1.056-1.282 0.054-0.015 0.116-0.023 0.18-0.023 0.208 0 0.394 0.090 0.523 0.233l0.001 0.001c0.364 0.359 0.483 1.008 0.311 1.694s-0.577 1.2-1.057 1.333c-0.083 0.026-0.179 0.042-0.278 0.044l-0.001 0zM29.879 14.716c-0.004 0.035-0.006 0.075-0.006 0.116 0 0.172 0.039 0.335 0.109 0.481l-0.003-0.007c0.153 0.236 0.416 0.39 0.714 0.39 0.092 0 0.18-0.014 0.262-0.041l-0.006 0.002c0.442-0.133 0.816-0.61 0.976-1.252s0.055-1.253-0.279-1.582c-0.108-0.124-0.266-0.202-0.442-0.202-0.052 0-0.103 0.007-0.152 0.020l0.004-0.001c-0.459 0.133-0.866 0.791-0.973 1.2-0.036 0.144-0.060 0.226-0.085 0.309l0.016-0.061c-0.065 0.183-0.112 0.396-0.133 0.617l-0.001 0.011h-0.001z"></path>
<path fill="#231f20" style="fill: var(--color6, #231f20)" d="M35.363 15.885c-0 0-0 0-0 0-0.074 0-0.134-0.060-0.134-0.134 0-0.026 0.007-0.049 0.020-0.070l-0 0.001c0.015-0.024 1.495-2.455 1.748-3.971 0.092-0.549-0.152-1.106-0.687-1.572-0.731-0.634-1.823-0.918-2.596-0.674-1.375 0.435-2.106 3.599-2.114 3.626-0.016 0.058-0.067 0.1-0.129 0.1-0.074 0-0.134-0.060-0.134-0.134 0-0.009 0.001-0.017 0.002-0.025l-0 0.001c0.031-0.133 0.774-3.342 2.294-3.822 0.869-0.273 2.041 0.025 2.851 0.728 0.609 0.533 0.885 1.173 0.777 1.817-0.267 1.568-1.723 3.964-1.784 4.066-0.024 0.039-0.066 0.064-0.113 0.064h-0z"></path>
<path fill="#231f20" style="fill: var(--color6, #231f20)" d="M42.599 34.764c-0.504-0.002-0.988-0.085-1.44-0.237l0.032 0.009c-0.569-0.205-1.060-0.496-1.483-0.863l0.006 0.005c-0.741-0.599-1.393-1.313-2.025-1.999-0.4-0.439-0.814-0.892-1.247-1.31-1.354-1.312-2.7-2.010-4.004-2.074-1.754-0.088-3.308 0.913-4.726 2.007-0.133 0.107-0.278 0.217-0.419 0.329-1.146 0.908-2.446 1.935-4.048 1.694-1.092-0.164-1.939-0.916-2.457-1.517-1.274-1.481-1.868-3.599-1.573-5.653 0.312-2.213 1.547-3.772 3.67-4.636 1.758-0.714 3.416-1.714 5.022-2.681l0.013-0.007c0.994-0.6 2.050-1.368 2.334-2.519 0.007-0.030 0.035-0.053 0.067-0.053 0.038 0 0.069 0.031 0.069 0.069 0 0.006-0.001 0.011-0.002 0.016l0-0c-0.296 1.2-1.377 1.987-2.396 2.6l-0.012 0.008c-1.609 0.969-3.274 1.971-5.041 2.69-2.077 0.844-3.283 2.367-3.589 4.532-0.286 2.015 0.291 4.088 1.537 5.54 0.503 0.585 1.324 1.316 2.375 1.473 1.544 0.233 2.765-0.733 3.945-1.666l0.42-0.33c1.439-1.11 3.017-2.126 4.814-2.035 1.335 0.067 2.709 0.777 4.088 2.111 0.435 0.423 0.85 0.877 1.252 1.317 0.627 0.688 1.276 1.398 2.010 1.99 0.405 0.352 0.881 0.636 1.402 0.826l0.031 0.010c1.803 0.581 3.603 0.009 5.364-1.701 2.612-2.543 4.084-6.398 4.037-10.589-0.021-1.957-0.387-3.486-1.118-4.676-0.295-0.481-0.667-1.017-1.273-1.285-0.31-0.133-1.036-0.184-1.316 0.209-0.107 0.151-0.118 0.328-0.134 0.553 0 0.097-0.013 0.207-0.028 0.325-0.006 0.032-0.033 0.055-0.066 0.055-0.037 0-0.067-0.030-0.067-0.067 0-0.002 0-0.004 0-0.005v0c0.016-0.115 0.021-0.217 0.028-0.316 0.015-0.237 0.028-0.441 0.157-0.623 0.326-0.457 1.124-0.409 1.479-0.253 0.646 0.282 1.026 0.838 1.335 1.333 0.745 1.212 1.116 2.763 1.138 4.745 0.047 4.223-1.439 8.118-4.077 10.685-1.337 1.308-2.708 1.962-4.087 1.964zM29.698 5.385c-0.020-0-0.038-0.009-0.051-0.023l-0-0c-0.012-0.012-0.019-0.029-0.019-0.047s0.007-0.035 0.019-0.047l-0 0c0.294-0.255 0.585-0.367 0.866-0.335 0.247 0.035 0.459 0.161 0.605 0.343l0.001 0.002c0.021 0.030 0.015 0.071-0.015 0.093-0.011 0.008-0.025 0.013-0.040 0.013-0.022 0-0.042-0.011-0.054-0.027l-0-0c-0.125-0.155-0.304-0.263-0.508-0.294l-0.005-0.001c-0.243-0.028-0.499 0.075-0.764 0.304-0.010 0.010-0.023 0.017-0.037 0.019l-0 0z"></path>
<path fill="#231f20" style="fill: var(--color6, #231f20)" d="M33.673 26.966c-0.004 0.001-0.009 0.001-0.014 0.001s-0.010-0.001-0.014-0.002l0 0c-0.020-0.011-0.033-0.031-0.033-0.055 0-0.010 0.002-0.020 0.007-0.028l-0 0 1.684-3.372c0.011-0.018 0.030-0.030 0.053-0.030 0.033 0 0.061 0.027 0.061 0.061 0 0.009-0.002 0.017-0.005 0.025l0-0-1.683 3.367c-0.010 0.020-0.030 0.033-0.054 0.033-0 0-0.001 0-0.001 0h0zM30.536 27.623c-1.929 0-4.195-0.624-4.32-0.659-0.030-0.004-0.054-0.030-0.054-0.061 0-0.034 0.027-0.061 0.061-0.061 0.009 0 0.017 0.002 0.025 0.005l-0-0c0.041 0.011 4.088 1.126 5.959 0.413 0.032-0.012 0.067 0.005 0.079 0.036 0.003 0.007 0.004 0.014 0.004 0.022 0 0.025-0.016 0.047-0.039 0.055l-0 0c-0.465 0.16-1.002 0.252-1.56 0.252-0.055 0-0.109-0.001-0.163-0.003l0.008 0zM46.604 16.627h0.291v0.432h-0.291z"></path>
<path fill="#231f20" style="fill: var(--color6, #231f20)" d="M46.895 17.118h-0.291c0 0 0 0 0 0-0.033 0-0.059-0.026-0.060-0.059v-0.432c0 0 0 0 0-0 0-0.032 0.026-0.059 0.059-0.059 0.001 0 0.001 0 0.002 0h0.291c0.032 0 0.059 0.026 0.059 0.059v0.432c0 0 0 0 0 0 0 0.032-0.026 0.059-0.059 0.059-0 0-0 0-0 0v0zM46.663 16.999h0.174v-0.313h-0.174v0.313z"></path>
<path fill="#fff" style="fill: var(--color5, #fff)" d="M30.986 15.369l-0.096-0.093c0.354-0.352 0.573-0.839 0.573-1.377 0-0.335-0.085-0.651-0.235-0.926l0.005 0.010 0.115-0.068c0.156 0.285 0.248 0.624 0.248 0.984 0 0.574-0.233 1.094-0.61 1.47l-0 0zM35.39 17.118l-0.124-0.049c0.39-1.004 0.291-1.745 0.291-1.751l0.134-0.019c0.003 0.028 0.103 0.78-0.3 1.819zM24.616 11.604l0.967-0.987 0.095 0.093-0.967 0.987zM42.096 24.567l0.059-0.12 1.027 0.502-0.059 0.12z"></path>
<path fill="#cd7df3" style="fill: var(--color8, #cd7df3)" d="M7.825 15.285c-0.056-0.013-0.116-0.023-0.171-0.041-0.176-0.044-0.313-0.176-0.365-0.344l-0.001-0.004c-0.010-0.039-0.016-0.083-0.016-0.129 0-0.114 0.036-0.22 0.097-0.306l-0.001 0.002c0.146-0.219 0.373-0.373 0.637-0.42l0.006-0.001c0.172-0.039 0.25-0.029 0.523 0.037v-3.21l3.16-0.632v3.926c0 0.008 0.001 0.017 0.001 0.026 0 0.203-0.090 0.384-0.233 0.506l-0.001 0.001c-0.177 0.172-0.419 0.278-0.686 0.278-0.1 0-0.196-0.015-0.286-0.042l0.007 0.002c-0.177-0.040-0.316-0.173-0.365-0.343l-0.001-0.003c-0.011-0.040-0.017-0.085-0.017-0.132 0-0.113 0.036-0.217 0.097-0.301l-0.001 0.002c0.146-0.22 0.374-0.375 0.64-0.42l0.006-0.001c0.059-0.013 0.126-0.021 0.196-0.021 0.116 0 0.226 0.021 0.328 0.061l-0.006-0.002v-2.207l-0.224 0.044c4.675-0.782 3.914-0.626 3.153-0.471l-5.405 0.92c-0.041 0.008-0.048 0.024-0.048 0.061v2.341c0 0.007 0 0.015 0 0.023 0 0.243-0.121 0.458-0.306 0.587l-0.002 0.002c-0.14 0.107-0.312 0.18-0.499 0.205l-0.005 0.001c-0.011 0.003-0.021 0.006-0.030 0.010l0.002-0.001h-0.184zM57.833 24.484v-0.076c-0.009-0.073-0.036-0.139-0.077-0.194l0.001 0.001c-0.068-0.099-0.154-0.18-0.254-0.242l-0.004-0.002c-0.096-0.062-0.208-0.109-0.329-0.132l-0.006-0.001c-0.076-0.015-0.154-0.015-0.23 0h-0.020c-0-0.004-0.001-0.009-0.001-0.013s0-0.009 0.001-0.014l-0 0.001c0.013-0.052 0.027-0.103 0.041-0.152l0.267-0.933c0.097-0.339 0.196-0.677 0.294-1.016v-0.020l-0.093-0.008c-0.026-0.002-0.057-0.002-0.089-0.002-0.238 0-0.464 0.050-0.668 0.14l0.011-0.004c-0.222 0.093-0.402 0.252-0.519 0.452l-0.003 0.005c-0.033 0.059-0.059 0.121-0.087 0.184-0.019 0.040-0.033 0.083-0.051 0.124-0 0.003-0.001 0.006-0.001 0.009s0 0.006 0.001 0.009l-0-0 0.033-0.020c0.106-0.070 0.217-0.131 0.332-0.184 0.143-0.066 0.31-0.104 0.486-0.104 0.029 0 0.057 0.001 0.085 0.003l-0.004-0c0.091 0.009 0.174 0.028 0.253 0.057l-0.007-0.002c-0 0.003-0 0.006-0 0.010s0 0.007 0 0.010l-0-0c-0.162 0.562-0.322 1.123-0.482 1.683-0.001 0.005-0.002 0.010-0.002 0.015s0.001 0.011 0.002 0.016l-0-0c0.011 0.099 0.053 0.192 0.12 0.267 0.084 0.102 0.188 0.183 0.307 0.239l0.005 0.002 0.104 0.045 0.096 0.028h0.027c0.036 0.008 0.078 0.012 0.12 0.012s0.084-0.004 0.124-0.013l-0.004 0.001c0.067-0.009 0.128-0.043 0.172-0.093 0.015-0.020 0.028-0.041 0.040-0.063l0.007-0.023zM10.347 25.796c0-0.032 0-0.065 0.015-0.097 0.023-0.088 0.069-0.168 0.133-0.233 0.105-0.11 0.232-0.198 0.374-0.257l0.007-0.003c0.134-0.060 0.29-0.098 0.455-0.103l0.002-0c0.007-0 0.016-0 0.024-0 0.097 0 0.19 0.017 0.276 0.049l-0.006-0.002 0.025 0.009c0.001-0.012 0.001-0.023 0-0.035 0-0.068-0.013-0.133-0.021-0.203-0.051-0.42-0.102-0.839-0.153-1.257-0.056-0.456-0.113-0.91-0.169-1.365v-0.027c0.041 0 0.083 0 0.121 0.009 0.332 0.033 0.652 0.142 0.934 0.319 0.261 0.162 0.461 0.401 0.572 0.684l0.003 0.010c0.029 0.083 0.054 0.168 0.073 0.253 0.016 0.056 0.027 0.113 0.040 0.171 0.001 0.003 0.002 0.007 0.002 0.011s-0.001 0.008-0.002 0.012l0-0-0.039-0.033c-0.117-0.106-0.244-0.206-0.378-0.296l-0.012-0.008c-0.2-0.133-0.441-0.221-0.7-0.244l-0.006-0c-0.026-0.002-0.057-0.003-0.088-0.003-0.085 0-0.167 0.008-0.248 0.023l0.008-0.001c0.001 0.008 0.001 0.017 0 0.025 0.089 0.753 0.18 1.509 0.274 2.266 0.001 0.006 0.002 0.012 0.002 0.019s-0.001 0.013-0.002 0.020l0-0.001c-0.036 0.131-0.11 0.242-0.208 0.323l-0.001 0.001c-0.125 0.112-0.276 0.196-0.443 0.243l-0.008 0.002c-0.047 0.015-0.095 0.025-0.141 0.037l-0.134 0.016h-0.021c-0.015 0.001-0.032 0.002-0.050 0.002-0.093 0-0.182-0.016-0.265-0.046l0.005 0.002c-0.085-0.026-0.154-0.080-0.199-0.152l-0.001-0.002c-0.014-0.025-0.027-0.054-0.039-0.085l-0.002-0.005-0.012-0.049zM42.303 13.973c0.017-0.035 0.032-0.071 0.052-0.103 0.063-0.090 0.145-0.162 0.242-0.21l0.004-0.002c0.155-0.081 0.337-0.132 0.53-0.144l0.004-0c0.035-0.003 0.075-0.005 0.116-0.005 0.157 0 0.308 0.025 0.45 0.070l-0.010-0.003c0.121 0.038 0.226 0.096 0.316 0.171l-0.002-0.001 0.025 0.020c0.006-0.011 0.011-0.024 0.016-0.037l0-0.002c0.020-0.079 0.039-0.157 0.056-0.237l0.32-1.48c0.115-0.533 0.229-1.069 0.343-1.608l0.007-0.032c0.047 0.020 0.091 0.037 0.133 0.057 0.369 0.174 0.679 0.419 0.922 0.72l0.004 0.005c0.226 0.273 0.367 0.623 0.379 1.006l0 0.003c0 0.105-0.005 0.209-0.016 0.313 0 0.071-0.015 0.133-0.023 0.209-0.001 0.009-0.004 0.017-0.008 0.024l0-0-0.032-0.052c-0.104-0.189-0.21-0.351-0.327-0.504l0.007 0.009c-0.183-0.238-0.419-0.426-0.691-0.549l-0.011-0.005c-0.109-0.048-0.236-0.084-0.368-0.104l-0.008-0.001h-0.009c-0.002 0.012-0.004 0.022-0.007 0.032l0-0.001-0.576 2.658c-0.003 0.017-0.009 0.031-0.018 0.044l0-0.001c-0.088 0.129-0.212 0.227-0.358 0.282l-0.005 0.002c-0.154 0.065-0.332 0.103-0.52 0.103-0.030 0-0.060-0.001-0.090-0.003l0.004 0c-0.059 0-0.116-0.008-0.175-0.013l-0.153-0.032-0.025-0.011c-0.128-0.036-0.239-0.094-0.334-0.171l0.002 0.001c-0.082-0.061-0.141-0.148-0.166-0.249l-0.001-0.003c-0.005-0.034-0.008-0.074-0.009-0.114l-0-0.002 0.011-0.055z"></path>
<path fill="#698dff" style="fill: var(--color9, #698dff)" d="M5.541 7.389c-0.687 0-0.689 1.066 0 1.066s0.689-1.066 0-1.066zM57.468 8.553c-0.687 0-0.689 1.066 0 1.066s0.689-1.066 0-1.066zM48.685 6.097c-0.014-0.046-0.037-0.085-0.068-0.117l0 0-0.055-0.041c-0.038-0.023-0.084-0.037-0.133-0.037h-0.075c-0.003-0-0.006-0-0.009-0-0.035 0-0.067 0.009-0.095 0.025l0.001-0c-0.033 0.010-0.063 0.029-0.087 0.055-0.024 0.023-0.043 0.052-0.054 0.084l-0 0.001c-0.017 0.032-0.025 0.067-0.023 0.103l0.009 0.072c0.013 0.044 0.036 0.084 0.068 0.117l0.055 0.041c0.041 0.023 0.087 0.036 0.133 0.036h0.075c0.036 0.002 0.071-0.006 0.103-0.023 0.033-0.011 0.063-0.030 0.087-0.055 0.045-0.050 0.074-0.116 0.077-0.188l0-0.001c-0.003-0.023-0.007-0.047-0.009-0.071zM16.809 4.851c-0.43 0-0.431 0.666 0 0.666s0.43-0.666 0-0.666zM55.257 11.322c-0.43 0-0.43 0.667 0 0.667s0.43-0.666 0-0.666z"></path>
</symbol>
<symbol id="icon-pattern-background-desktop" viewBox="0 0 105 32">
<path fill="#d6e1ff" style="fill: var(--color10, #d6e1ff)" d="M0 25.627c16.004 8.497 33.688 8.497 53.051 0s36.828-8.497 52.395 0v-25.627h-105.446v25.627z"></path>
</symbol>
<symbol id="icon-pattern-background-mobile" viewBox="0 0 62 32">
<path fill="#d6e1ff" style="fill: var(--color10, #d6e1ff)" d="M-21.742 25.627c16.004 8.497 33.688 8.497 53.051 0s36.828-8.497 52.396 0v-25.627h-105.446v25.627z"></path>
</symbol>
</defs>
</svg>
