<!-- Generated by IcoMoon.io -->
<svg version="1.1" xmlns="http://www.w3.org/2000/svg" width="32" height="32" viewBox="0 0 32 32">
<title>icon-music</title>
<path fill="#dfe6fb" d="M32 16c0 8.837-7.163 16-16 16s-16-7.163-16-16c0-8.837 7.163-16 16-16s16 7.163 16 16z"></path>
<path fill="#717fa6" d="M21.716 10.132c-0.094-0.082-0.218-0.132-0.354-0.132-0.027 0-0.054 0.002-0.080 0.006l0.003-0-7.565 1.081c-0.264 0.039-0.464 0.263-0.464 0.535 0 0 0 0.001 0 0.001v-0 6.334c-0.311-0.184-0.685-0.293-1.085-0.293-0.001 0-0.002 0-0.003 0h0c-1.197 0.002-2.167 0.972-2.169 2.169v0c0.002 1.197 0.972 2.167 2.169 2.169h0c1.197-0.002 2.167-0.972 2.169-2.169v-5.58l6.484-0.927v3.551c-0.311-0.185-0.686-0.294-1.087-0.294-0 0-0.001 0-0.001 0h0c-1.197 0.001-2.168 0.971-2.169 2.169v0c0.002 1.197 0.972 2.168 2.169 2.169h0c1.197-0.002 2.167-0.972 2.169-2.169v-8.211c0-0 0-0 0-0 0-0.163-0.072-0.309-0.186-0.408l-0.001-0.001z"></path>
</svg>
